<svg xmlns="http://www.w3.org/2000/svg" viewBox="0 0 269.5 49.33"><path d="M12.18 1a12.57 12.57 0 013.38 3.92c3 1.28 4.32-4.46-3.26-4zm-2.7 4.26h2.42l-.34 4.42H9.48zm6.4 3l-1.42 1.36.3-3.94a1.11 1.11 0 00.74-.34l-2.68-1.92-1.08 1.28H9.48V1c.5-.08.62-.28.66-.52L6.36.14V4.7H1.44l.18.56h4.74v4.42H0l.18.56h6.18V19H7c1.16 0 2.52-.78 2.52-1.08v-7.68h5.1c-.12 2.7-.32 4.22-.7 4.54a.78.78 0 01-.58.16c-.4 0-1.72-.06-2.54-.12v.2a3.67 3.67 0 012 1 2.81 2.81 0 01.42 1.92 4.51 4.51 0 002.78-.76c1.06-.74 1.4-2.48 1.58-6.44a1.2 1.2 0 00.8-.38zM34.16 14h-6.42v-2.38h6.42zm-6.42.56h6.42v2.58h-6.42zM39.8 5.5c.3 0 .52-.1.58-.32-1-.8-2.52-1.94-2.52-1.94l-1.38 1.7h-4.12v-2c1.56-.12 3-.28 4.2-.44.68.28 1.18.26 1.42.06L35.52.06A73 73 0 0123 2.92v.3c2 0 4.28 0 6.44-.12v1.84h-7.78l.16.56h5.62a17.12 17.12 0 01-6 5.72l.14.22a23.54 23.54 0 003.32-1.24v8.88h.42c1.18 0 2.42-.62 2.42-.9v-.48h6.42v1.36h.5a4.94 4.94 0 002.4-.66v-6.32a1.23 1.23 0 00.78-.44l-2.62-2L34 11.06h-6.1l-2.66-1a16.61 16.61 0 004.28-2.86v3.18H30a3 3 0 002.32-.72V5.5h.34a10.51 10.51 0 005.76 5.8 3.07 3.07 0 012-2.56V8.5c-2.62-.4-5.7-1.28-7.34-3zm14.74-.32h3.8v5.38h-3.8zm-6.86 0h3.76v5.38h-3.76zm11.8-2l-1.32 1.44h-3.62V1.06c.56-.08.7-.3.74-.58L51.44.12v4.5H47.9l-3.28-1.24v9.76h.44c1.26 0 2.62-.68 2.62-1v-1h3.76v8H52c1.18 0 2.52-.76 2.52-1.06v-6.96h3.8v1.68h.54a5.46 5.46 0 002.56-.68V5.68a1.23 1.23 0 00.78-.44zM76.64 10a4.91 4.91 0 01.84 2.52 1.68 1.68 0 00.58.32l-.92 1.24h-1.06V9.54h3.14c.28 0 .48-.1.54-.32-.76-.74-2.06-1.8-2.06-1.8L76.56 9h-.48V5.22h3.58c.28 0 .5-.1.56-.32C79.4 4.16 78 3.06 78 3.06l-1.22 1.6h-7l.16.56h3.46V9h-2.78l.16.56h2.7v4.54H69.7l.16.56H80c.28 0 .48-.1.54-.32-.52-.48-1.24-1.08-1.7-1.48 1.16-.36 1.52-2.44-2-2.94zm-7.36-7.84H80.6v14.66H69.28zm12.46-2L80.4 1.6H69.52L66.44.38V19.1h.48c1.22 0 2.36-.7 2.36-1.06v-.66H80.6V19h.46a3.8 3.8 0 002.44-.88V2.62a1.36 1.36 0 00.8-.44zm8.66 11.5a1.8 1.8 0 001.84-1.78 1.84 1.84 0 10-3.68 0 1.8 1.8 0 001.84 1.78m13.18-5.38V2.86a1.14 1.14 0 00.68-.28v3.66zm-2.76 2.82c.38-.08.56-.2.62-.38l-1.6-.6c.68-.74 1.26-1.48 1.74-2.12h.12v.18a1.94 1.94 0 00-.34.38l1.84.84.48-.6h3.18v.44l-.72 1.06h-4.54l.16.56h6.38c.28 0 .46-.1.52-.32-.38-.42-1-1-1.32-1.3.64 0 1.38-.32 1.38-.46V2.7c.36-.06.48-.22.52-.42l-2.4-.22v4.18h-.64V1c.4-.08.54-.24.56-.46l-2.5-.22v2.06L101.74 2a.45.45 0 00.32-.24L99.14.08a22.85 22.85 0 01-2.92 5.54l.18.2A20.46 20.46 0 00101.28 2a1.45 1.45 0 00.42 0v3.36l-2.4-1.28a33.39 33.39 0 01-3.36 7.28l.2.2a20.1 20.1 0 002.24-1.9v9.46h.46a2.47 2.47 0 002-.86zm4.88 1.9v3.4c0 .38-.08.54-.66.92l1.34 2.2a1.61 1.61 0 00.64-.78c1.1-1.1 2-2.16 2.46-2.68l-.08-.22-1.5.58v-3a1.17 1.17 0 00.68-.34l-1.84-1.54-.94.94h-1l-2.58-.92v2.38c0 1.92-.08 4.48-1.44 6.54l.18.18a7.23 7.23 0 003.5-6.72V11zm6.3-5.62a22.93 22.93 0 01-.94 6.12 16.91 16.91 0 01-1-3.44 20.32 20.32 0 001.12-2.68zm2.9 0c.28 0 .48-.1.54-.32-.86-.76-2.2-1.74-2.2-1.74l-1.2 1.5h-.68a30.54 30.54 0 00.9-3.6c.46 0 .68-.22.74-.5l-3.1-.54a38.55 38.55 0 01-1.72 10.14l.28.14a11.22 11.22 0 001.22-1.74 34.12 34.12 0 00.68 4.62A13.67 13.67 0 01105.5 19l.16.22A13.93 13.93 0 00111 15.4a9.62 9.62 0 002.3 3.72 2.77 2.77 0 012.2-2.24l.06-.2a10.43 10.43 0 01-3.34-3.06 19.83 19.83 0 002.16-8.24zM128.08.1a6.33 6.33 0 011.52 3.26c2.64 1.86 5.06-3.22-1.4-3.36zm-6.42-.1a36.82 36.82 0 01-3.54 11l.2.14a15.6 15.6 0 002.18-2v10h.5a3.41 3.41 0 002.32-.8V6.52c.4-.08.56-.2.62-.4l-1-.38a25.81 25.81 0 001.88-4.16c.48 0 .74-.18.82-.44zm14.06 7.3c.3 0 .52-.1.56-.32-.84-.8-2.28-2-2.28-2l-1.28 1.76h-7.44l.16.56zm0 2.94c.28 0 .5-.1.56-.32-.84-.8-2.3-2-2.3-2l-1.28 1.76h-7.24l.16.56zm-7.34 2.58h4.42v3.92h-4.42zm4.22-.56h-4.1l-3-1.14v8h.4c1.18 0 2.44-.62 2.44-.88v-.9h4.42v1.52h.5a4.41 4.41 0 002.4-.74v-4.8a1.23 1.23 0 00.78-.44l-2.6-2zm1.08-8.32h-9.58l.16.56H137c.28 0 .5-.1.56-.32-.92-.86-2.5-2.16-2.5-2.16zM141.6.42a10 10 0 011.8 3.46c2.48 1.62 4.6-3.06-1.64-3.56zm5.64 13.32l-2 .76v-8a1.18 1.18 0 00.86-.36l-2.2-1.84-1.24 1.22h-2.42l.18.56h2.2v8.36c0 .46-.16.68-1.18 1.28l2 2.92a2.1 2.1 0 00.7-1 37 37 0 003.14-3.76zm5.92.5a16.41 16.41 0 013.52 4.52c2.7 1.38 4.06-3.78-3.36-4.66zm2.36-1.34h-2a18.75 18.75 0 001.24-5.18c.56 0 .7-.16.76-.38l-3.76-.5a18.32 18.32 0 01-.8 6.06h-5.08l.16.56h4.7a9.5 9.5 0 01-6 5.48l.08.2c4.5-1 7-2.74 8.46-5.68h5.58c.3 0 .52-.1.56-.32-.92-.82-2.48-2-2.48-2zm-8.86-2.82a4.66 4.66 0 011.68 2.38c2.2 1.12 3.56-3-1.54-2.52zm.82-2.7a4.71 4.71 0 011.74 2.28c2.2 1.06 3.46-3.12-1.6-2.42zm9.94-2.68L156.1 6h-2.74V3.5h4.34c.28 0 .5-.1.56-.32-.9-.8-2.4-2-2.4-2l-1.32 1.72h-1.18V.86c.48-.08.6-.26.64-.5l-3.32-.28v2.86H147l.16.56h3.5V6h-4.46l.16.56h9.92c-.1.94-.28 2.2-.46 3.06l.16.12a16.41 16.41 0 003-2.64c.42 0 .62-.08.78-.26zM175 1a12.57 12.57 0 013.38 3.92c3 1.28 4.32-4.46-3.26-4zm-2.7 4.24h2.42l-.34 4.42h-2.08zm6.4 3l-1.42 1.32.3-3.94a1.11 1.11 0 00.74-.34l-2.68-1.92-1.1 1.34h-2.26V1c.5-.08.62-.28.66-.52l-3.78-.34V4.7h-4.92l.18.56h4.74v4.42h-6.36l.18.56h6.18V19h.6c1.16 0 2.52-.78 2.52-1.08v-7.68h5.1c-.12 2.7-.32 4.22-.7 4.54a.78.78 0 01-.58.16c-.4 0-1.72-.06-2.54-.12v.2a3.67 3.67 0 012 1 2.81 2.81 0 01.42 1.92 4.51 4.51 0 002.86-.72c1.06-.74 1.4-2.48 1.58-6.44a1.2 1.2 0 00.8-.38zM189.94.66a31.55 31.55 0 01-5.84 10.66l.18.18a20.71 20.71 0 008.52-8.88c.48.08.74-.08.86-.32zm5.78 11a21.87 21.87 0 012 3.22c-3.1.28-6.26.44-8.52.5a29.88 29.88 0 006.2-6.52.75.75 0 00.82-.3l-3.84-2.14c-.62 2.68-2.9 7.34-4.16 8.48a6 6 0 01-1.92.56l1.56 3.5a1.46 1.46 0 00.7-.58A76.7 76.7 0 00198 15.5a13.7 13.7 0 01.9 2.74c3 2.36 5.34-4-3-6.66zm0-11.26l-.2.1c.7 5.18 2.38 8.16 5.18 10.2a3.93 3.93 0 012.88-2.5v-.24c-3.06-1.28-5.76-3.1-7.08-5.72a5.55 5.55 0 00.9-1.16zM210 .3a8.94 8.94 0 011.88 4.06c2.66 1.94 5-3.26-1.74-4.16zm14.58 5.12c.3 0 .52-.1.58-.32-1-.9-2.7-2.22-2.7-2.22l-1.5 2h-3.44a26.92 26.92 0 003.78-3.22c.46 0 .68-.12.76-.36L218.24.08a31 31 0 01-1.38 4.78h-10.4l.16.56zM216.7 6a25.45 25.45 0 015.58 5c3.08.94 3.78-4.76-5.44-5.12zm-4.94-.58a19 19 0 01-5.36 5.7l.1.16a21.74 21.74 0 008-4.16c.68 0 1-.14 1.08-.42zm.12 6.6h.88v5.44h-.88zm4.24 5.44h-.82V12h.82zm3.4 0h-.86V12h.86zm2.82-.14v-5c.52-.1.76-.22.9-.42l-2.76-1.9-1.16 1.46h-7.26l-2.86-1.06v7.08h-2.8l.16.56h18.26c.28 0 .48-.1.54-.32-.64-.88-2-2.3-2-2.3zM229.7.62a9.27 9.27 0 012 3.24c2.6 1.44 4.38-3.34-1.86-3.36zM228.2 5a7.15 7.15 0 011.74 3.12c2.46 1.54 4.42-3.14-1.6-3.24zm15 11.64h-5.34v-4.82h5.34zm.36-9.74h-1.64V3.34c1.24-.16 2.38-.32 3.32-.48a1.6 1.6 0 001.46 0L244 .26a53.71 53.71 0 01-9.76 3.32v.26c1.5 0 3.14-.1 4.72-.22V6.9H234c.3-.88.58-1.72.82-2.38l-.28-.08c-3.94 7.42-3.94 7.42-4.48 8.18-.26.4-.36.4-.7.4h-.94v.34a2.31 2.31 0 011.08.36c.48.32.56 2.26.14 4.36a1.34 1.34 0 001.34 1 1.88 1.88 0 002-1.8c.06-1.8-.9-2.36-.94-3.5a7.48 7.48 0 01.34-1.94c.2-.72.88-2.9 1.56-4.92l.14.5H239v3.8h-1l-3-1.14V19h.4c1.2 0 2.44-.62 2.44-.88v-1h5.34v1.72h.5a4.29 4.29 0 002.38-.76v-5.8a1.36 1.36 0 00.8-.44l-2.6-2-1.3 1.4h-1.06V7.46h5c.28 0 .52-.1.56-.32-.92-.88-2.52-2.2-2.52-2.2zm15.28-3.74c.3 0 .5-.1.56-.32C258.5 2 257 .8 257 .8l-1.34 1.8H251l.16.56zm-2.76 6.94a18.7 18.7 0 01.6 3.18c-1.82.18-3.5.34-4.7.44a22.67 22.67 0 004.44-4.84.68.68 0 00.64-.4l-3.14-1h6c.28 0 .5-.1.56-.32-.9-.82-2.42-2-2.42-2L256.74 7h-6.5l.16.56h2.92c-.32 1.82-1.46 4.88-2.3 5.76a2.5 2.5 0 01-.84.3l1.5 3.54a1.33 1.33 0 00.56-.5c1.76-.78 3.3-1.56 4.5-2.22v.84c2.16 2.36 4.88-2.2-.4-5.22zm11.08-6.38l-1.44 1.44h-1.78V.98c.48-.08.7-.26.76-.58l-3.6-.32v5.08h-2.24l.18.56h2.06c-.06 5.6-.66 9.74-4.64 13.12l.18.26c6.22-2.88 7.1-7.24 7.26-13.38h2c-.16 6.54-.38 9.44-1.06 10a.89.89 0 01-.66.24c-.42 0-1.32 0-1.92-.1v.24a2.51 2.51 0 011.54.92 3.67 3.67 0 01.3 1.88 3.86 3.86 0 002.84-1c1.18-1.12 1.48-3.58 1.66-11.74a1.44 1.44 0 00.88-.4zM31.92 38.18a8.55 8.55 0 00-1.72-1.56l-.62.41a10.5 10.5 0 011.68 1.62zM23.61 45l-1.42.54v-4.76h1.39v-.87h-1.39v-3.25h-.87v3.25h-1.51v.87h1.51v5c-.63.24-1.2.44-1.68.59l.31.93c1.09-.44 2.49-1 3.82-1.52zm7.53-3.86a15.52 15.52 0 01-1.36 3.64 42.27 42.27 0 01-.49-5.24h3v-.85h-3v-2.18h-.88v2.18h-4.23V43c0 1.81-.14 4.12-1.54 5.74a4 4 0 01.69.59c1.49-1.73 1.72-4.37 1.72-6.33v-.67h1.89c0 2.61-.1 3.52-.25 3.73s-.17.14-.35.14H25.2a2.15 2.15 0 01.21.8 8.93 8.93 0 001.28 0 .84.84 0 00.7-.36c.26-.34.32-1.44.36-4.66v-.4h-2.7v-2h3.39a39.27 39.27 0 00.67 6.32 9.6 9.6 0 01-2.8 2.7 4.1 4.1 0 01.67.64 10.42 10.42 0 002.41-2.28c.43 1.39 1 2.2 1.83 2.2s1.15-.66 1.29-2.74a2.14 2.14 0 01-.7-.48c-.06 1.65-.2 2.34-.48 2.34-.51 0-.95-.81-1.3-2.23a16.19 16.19 0 002-4.73zm15.12-1.65v-.91h-5.69l.27-.1a16 16 0 00-1.11-2.07l-.88.29a19.86 19.86 0 011 1.88h-6v.91h5.71v2h-4.4v6.17h.93v-5.31h3.39v6.9h1v-6.9H44v4c0 .19-.07.26-.31.28s-1.1 0-2.08 0a3.79 3.79 0 01.32.93 9.56 9.56 0 002.45-.17c.43-.16.57-.45.57-1v-4.95h-4.52v-2zm5.37-2.55a13.11 13.11 0 01-3.85 5.36 7.91 7.91 0 01.87.66 16.22 16.22 0 004-5.75zm4 7.42c.57.71 1.21 1.55 1.79 2.38l-6.75.38a36 36 0 003.93-5.9l-1-.44a30.07 30.07 0 01-3.38 5.37c-.52.65-.9 1.11-1.25 1.19a6.19 6.19 0 01.36 1c.48-.18 1.21-.23 8.66-.72.37.56.71 1.12 1 1.56l.89-.49A33.15 33.15 0 0056.45 44zm-.27-7.17a21.85 21.85 0 004.3 5.81 4.86 4.86 0 01.78-.79 17.24 17.24 0 01-4.21-5.34zM71 36.51A14.65 14.65 0 0169.54 39l.77.29A28.35 28.35 0 0072 36.82zm3 2.74h-8.3l.74-.37A11.12 11.12 0 0065 36.54l-.78.35a12.27 12.27 0 011.44 2.36H62v.84h12zm0 3.42a35.89 35.89 0 00-4.24-1.82l-.44.66a34.22 34.22 0 014.22 1.92zm-8.12-1.88A15.44 15.44 0 0162.05 43a2.87 2.87 0 01.56.71 20.14 20.14 0 003.89-2.46zm-1.49 3.62h1.85V48h-1.87zM68.94 48h-1.85v-3.59h1.85zm2.74 0h-1.87v-3.59h1.87zm.88 0v-4.4h-9V48h-1.87v.84h12.64V48zm14-8.26h-4.3v-2h4.3zm.9-2.74h-6.09v3.54h6.09zm-7.06 5.6l-1.76.51v-2.89h1.83v-.87h-1.83v-2.84h-.91v2.84h-2v.87h2v3.12c-.83.23-1.58.44-2.18.59l.29.9 1.89-.56v3.86c0 .21-.08.27-.28.28H76a3.77 3.77 0 01.3.85 5.43 5.43 0 001.86-.17c.34-.15.49-.4.49-1V44l1.88-.59zm1.47 1.88h5.07v1.3h-5.07zm5.07-.79h-5.07v-1.3h5.07zm.94-2.07H81v7.66h.91v-2.75h5.07v1.6c0 .17 0 .24-.25.24h-1.62a4.36 4.36 0 01.28.89 7.13 7.13 0 002-.16c.38-.15.49-.42.49-.95zM91 38h2.8v7.7h.73v-8.52h-4.26v8.51H91zm1.73 1H92v3.92c0 1.79-.14 4.36-2.38 5.78a3.17 3.17 0 01.49.56c2.39-1.63 2.61-4.32 2.61-6.32zm-.16 7.38a15.54 15.54 0 011.72 2.38l.6-.49a15.24 15.24 0 00-1.76-2.31zm7.79-.38h-3.83v-1.36h3.82zm-3.82.74h3.82v1.19h-3.83zm-.82 2.48h.82v-.54h3.82v.49h.84V43.9h-5.49zm.47-9.34a11.71 11.71 0 01.94 2.12l.56-.24a9.66 9.66 0 00-1-2.08zM99.63 42c.32-.55.72-1.39 1.06-2.12l-.64-.22a16.75 16.75 0 01-.93 2.13zm1.28.44h-2.15V39h2.15zm-5-3.36h2.15v3.32h-2.12zm4.11-.71c.33-.46.68-1 1-1.54l-.86-.32a13.09 13.09 0 01-1 1.86H97l.71-.28a6.68 6.68 0 00-.85-1.55l-.73.25a7.2 7.2 0 01.78 1.58h-1.72v4.8h6.52v-4.8zm10.47 3.29h3.9v2.45h-3.9zm-4.45 2.45c0-.53.05-1 .05-1.53v-.92h3.47v2.45zm3.52-3.32h-3.47v-2.4h3.47zm4.83 0h-3.9v-2.4h3.9zm.93-3.25h-10.11v5c0 2-.15 4.44-1.69 6.18a2.75 2.75 0 01.7.61A8 8 0 00106 45h3.61v4.19h.93V45h3.9v3c0 .27-.09.35-.36.37s-1.23 0-2.24 0a3.15 3.15 0 01.32.9 9.65 9.65 0 002.59-.15c.44-.16.62-.45.62-1.1zm5.05 5v-2.99h7.39v2.9zm4-3.78l.61-.19a13.85 13.85 0 00-.86-2l-.88.24a17 17 0 01.78 2h-4.56v3c0 2.11-.2 5-1.92 7.09a3.93 3.93 0 01.8.55 10.62 10.62 0 002-6h7.45v1h.94v-5.6zm19.56 3v-.9h-7.24c.2-.57.38-1.16.56-1.75h5.69v-.88h-5.41c.16-.55.33-1.08.48-1.6h-1c-.14.51-.28 1-.46 1.6H133V39h3.33c-.18.59-.38 1.18-.57 1.75h-3.88v.9h3.58c-.32.92-.63 1.79-.91 2.49h6.56c-.83.84-1.94 1.9-2.92 2.83-1-.39-2-.74-3-1l-.54.69a30.8 30.8 0 016.19 2.61l.56-.79a21 21 0 00-2.32-1.14c1.29-1.24 2.76-2.67 3.76-3.69l-.7-.44-.16.07h-6.14c.17-.49.37-1.05.55-1.62zm12.47-2.56h-8.47v-1.32h8.47zm.93.75v-2.84H147v4.08c0 2.22-.13 5.32-1.5 7.51a4.21 4.21 0 01.8.47c1.42-2.29 1.61-5.63 1.61-8V40zm-7.4 2.86h2.6v1.06h-2.6zm6.13 1.06h-2.67v-1.06h2.67zm1.5 1.46h-4.17v-.84h3.55v-2.3h-3.55v-.88a31.22 31.22 0 003.31-.39l-.57-.57a55.74 55.74 0 01-7.35.53 3.09 3.09 0 01.2.63c1.13 0 2.36-.06 3.55-.13v.81h-3.46v2.3h3.46v.84h-4v4h.87V46h3.15v1.17l-2.55.09V48l5.18-.24c.17.25.32.49.43.69l.58-.25a16.87 16.87 0 00-1.35-1.92l-.56.19c.14.19.31.41.47.65h-1.4V46h3.3v2.36c0 .14 0 .2-.22.2h-1.38a3.61 3.61 0 01.26.69 5.67 5.67 0 001.77-.13c.35-.12.44-.3.44-.74zm6.38-5.08a14.67 14.67 0 01-1.26 4.75 18.83 18.83 0 00-1.66-1.2c.28-1 .58-2.26.85-3.53zm.41-.9h-2.3c.2-1 .37-2 .48-2.81l-.9-.06c-.11.87-.28 1.88-.47 2.87h-1.53v.87H161a39.07 39.07 0 01-1 3.89 22.45 22.45 0 012.27 1.68 7.05 7.05 0 01-2.83 2.69 3 3 0 01.59.73 7.84 7.84 0 002.97-2.79 10.93 10.93 0 011.43 1.58l.63-.79a11.45 11.45 0 00-1.64-1.62 17.64 17.64 0 001.5-6.08zm8 3.1h-3.14V41a15.13 15.13 0 002.7-3l-.65-.46h-5.62v.86h4.76a12 12 0 01-2.12 2.36v1.66H165v.88h3.29v4.79c0 .19-.07.26-.31.28s-1 0-1.82 0a4.13 4.13 0 01.37.88 7.12 7.12 0 002.14-.15c.42-.15.57-.42.57-1v-4.77h3.14zm13.87-3.59a22.4 22.4 0 00-2.57-1.86l-.56.6a20.82 20.82 0 012.57 2zm-6.35 1h3.33v2.86h-3.33zm4.25 2.86V39h-4.25v-2.4h-.95V39h-4.11v.9h4.11v2.86h-5.06v.88h5.06v5.64h.95v-5.67h5.26c-.17 2.11-.33 3-.63 3.26-.12.13-.28.14-.59.14a19.71 19.71 0 01-2.1-.1 2.06 2.06 0 01.33.9c.84 0 1.68.07 2.11 0a1.33 1.33 0 001-.41c.41-.39.62-1.49.84-4.28v-.43zm14.12-1.87v2.57h-4a18.53 18.53 0 00.35-2.57zm-8.11 2.57v-2.56h3.43a16.81 16.81 0 01-.34 2.57zm5-5A10 10 0 01194 40h-3.85a16.27 16.27 0 001.43-1.62zm1.22 9.73c-.66 0-.77-.08-.77-.49v-3.39h3.57V40h-4.14a12.32 12.32 0 001.52-2l-.61-.41h-3.75c.22-.32.4-.63.58-.94l-1-.18a12.77 12.77 0 01-4.08 4.4 2.62 2.62 0 01.66.67c.32-.22.6-.45.9-.69v3.41H193c-.66 1.84-2 3.27-5.22 4.06a2.44 2.44 0 01.53.79c3.5-.93 5-2.64 5.67-4.85h.7v3.38c0 1 .35 1.32 1.64 1.32h2.42c1.15 0 1.43-.48 1.55-2.45a2.57 2.57 0 01-.86-.38c-.06 1.71-.14 2-.76 2zM203.7 41c.06-.36.13-.74.18-1.13H206a3 3 0 01-.29 1.13zm3.19-2.88h2.34v1.06h-2.34zm5.42 1.06h-2.18v-1.06h2.18zM209.23 41h-2.56a4.26 4.26 0 00.21-1.13h2.35zm-5.56 6.37h.9v-3.08h6.93v3h.94V43.5H204a4.57 4.57 0 002.34-1.81h2.87v1.46h.9v-1.46H213a1.72 1.72 0 01-.18.71.39.39 0 01-.32.1 9.64 9.64 0 01-1 0 1.76 1.76 0 01.2.64 10.38 10.38 0 001.18 0 1 1 0 00.65-.24c.21-.21.33-.64.42-1.54v-.34h-3.86v-1.15h3v-2.44h-3v-.92h-.9v.92h-2.34v-.92H206v.92h-3.49v.69H206v1.06h-2.9c-.1.82-.28 1.82-.42 2.51h2.55a6.63 6.63 0 01-3.37 1.62 3.66 3.66 0 01.46.72c.49-.13.94-.25 1.31-.39zm4-2.49c-.42 2.19-1.62 3.17-6 3.61a2.59 2.59 0 01.37.77c4.61-.54 6-1.75 6.54-4.38zm.65 2.44a39.83 39.83 0 015.32 1.93l.5-.73a38.06 38.06 0 00-5.35-1.85zM227 42.66a20.79 20.79 0 001-2.58l-.6-.17h-2.94v-1.27h2.94v-.81h-2.94v-1.32h-.91v1.32h-2.9v.81h2.9V40h-3.43v.82H227a12.44 12.44 0 01-.68 1.68zm-3.32.05a9.16 9.16 0 00-2-1.34l-.43.47a10 10 0 012 1.42zm-3.48.42a9.21 9.21 0 012 1.44l.45-.56a9.18 9.18 0 00-2-1.38zm-.93-4.23a15.88 15.88 0 00-2.15-2l-.59.6a19.4 19.4 0 012.13 2.13zm-.7 8v-6h-3v.9h2.11V47a1.71 1.71 0 01-.65 1.3 3.48 3.48 0 01.5.66 19.54 19.54 0 012.72-2.34 5 5 0 01-.37-.77zm9.59-1.32v-.82h-3.46a7.54 7.54 0 00.16-1.67v-1.74H224V43a6.79 6.79 0 01-.18 1.7h-3.92v.82h3.62c-.53 1.11-1.62 2.2-3.85 3.06a2.66 2.66 0 01.58.71c2.59-1 3.75-2.39 4.27-3.77zm-3.64 1.11a19.64 19.64 0 013.19 2.65l.59-.62a19.78 19.78 0 00-3.22-2.56z" fill="#464b59"/></svg>